<svg xmlns="http://www.w3.org/2000/svg" xml:space="preserve" style="enable-background:new 0 0 511.997 511.997" viewBox="0 0 511.997 511.997"><path d="M505.377 108.857c-10.08-17.085-28.738-25.748-55.452-25.748-28.436 0-68.32 10.006-115.504 28.953-23.569-12.854-50.409-20.026-78.424-20.026-90.132 0-163.502 73.103-163.953 163.13-14.152 11.554-26.995 22.953-38.177 33.915-6.126 6.008-11.816 11.946-16.911 17.647a7.898 7.898 0 0 0 .628 11.153 7.898 7.898 0 0 0 11.153-.628c4.863-5.444 10.31-11.126 16.189-16.892 8.457-8.289 17.901-16.851 28.186-25.556.082.722.181 1.442.274 2.162.062.482.117.966.183 1.447.161 1.177.338 2.352.524 3.525l.018.12a162.697 162.697 0 0 0 5.624 23.701 484.12 484.12 0 0 0-7.462 6.797c-10.093 9.397-43.4 41.645-48.187 62.071a7.897 7.897 0 0 0 5.621 9.426c3.254.884 7.413 1.331 12.362 1.331 18.516 0 46.866-6.55 79.846-18.449l.087-.032c42.509-15.345 90.782-38.68 139.612-67.492 21.864-12.9 43.051-26.474 62.974-40.346a7.899 7.899 0 0 0-9.026-12.964c-19.599 13.646-40.452 27.005-61.976 39.704-46.089 27.195-91.571 49.374-131.947 64.392a147.873 147.873 0 0 1-32.418-73.924c-.019-.137-.035-.274-.053-.412a150.993 150.993 0 0 1-1.301-17.115c0-.02-.005-.04-.005-.06-.016-.896-.031-1.792-.031-2.691 0-81.699 66.467-148.167 148.167-148.167 41.521 0 80.178 17.437 107.623 46.374 12.942 13.645 23.229 29.72 30.158 47.207-10.476 8.988-22.005 18.206-34.347 27.456a7.899 7.899 0 0 0 9.474 12.64c14.3-10.718 27.556-21.41 39.401-31.78.066-.058.133-.114.197-.174a499.8 499.8 0 0 0 11.218-10.119c26.941-25.08 44.955-48.284 48.188-62.069a7.898 7.898 0 0 0-5.622-9.427c-3.255-.884-7.414-1.331-12.363-1.331-17.577 0-44.021 5.903-74.86 16.678-.238-.252-.482-.495-.722-.746l-.52-.536a164.25 164.25 0 0 0-22.66-19.541c40.517-15.446 74.454-23.562 98.761-23.562 20.728 0 34.809 6.048 41.847 17.98 14.266 24.184-8.566 54.767-23.465 72.809-17.851 21.616-39.507 39.719-61.242 57.266-31.924 25.774-70.436 52.164-111.371 76.318-41.103 24.253-82.816 45.221-120.629 60.637-46.819 19.09-85.894 29.18-112.996 29.18-20.728 0-34.807-6.048-41.845-17.976-7.088-12.016-5.504-27.396 4.711-45.712 1.705-3.057 3.74-6.33 6.046-9.725a7.898 7.898 0 1 0-13.068-8.876c-2.565 3.777-4.846 7.446-6.776 10.906-13.142 23.57-14.664 44.239-4.519 61.434 10.081 17.084 28.738 25.747 55.451 25.747 28.422 0 68.277-9.996 115.431-28.923a163.933 163.933 0 0 0 14.657 7.099c20.015 8.471 42.023 12.894 63.983 12.894 1.82 0 3.641-.031 5.46-.092a7.898 7.898 0 0 0 7.629-8.16c-.147-4.359-3.799-7.778-8.16-7.629-21.476.728-43.179-3.277-62.755-11.563-.492-.209-.978-.435-1.469-.649 34.152-14.857 70.764-33.678 106.878-54.988 35.994-21.238 70.166-44.202 99.788-67.015-1.921 20.466-8.069 40.386-18.071 58.287-11.842 21.198-28.905 39.358-49.345 52.518a147.482 147.482 0 0 1-37.531 17.291 7.897 7.897 0 0 0-5.301 9.832 7.902 7.902 0 0 0 7.564 5.635c.75 0 1.514-.108 2.269-.334a163.221 163.221 0 0 0 41.552-19.142c22.607-14.556 41.482-34.645 54.583-58.094 13.428-24.033 20.577-51.342 20.718-79.025 14.148-11.55 26.99-22.95 38.18-33.917 19.587-19.202 33.962-36.91 42.73-52.631 13.143-23.562 14.664-44.23 4.519-61.424zM125.894 355.791c-25.825 8.665-47.677 13.506-62.471 13.787 5.587-9.49 17.49-24.859 39.615-45.455.879-.818 1.779-1.648 2.695-2.487a163.617 163.617 0 0 0 20.161 34.155zm322.678-213.367c-5.589 9.491-17.491 24.859-39.616 45.454-.873.813-1.766 1.637-2.676 2.47a163.12 163.12 0 0 0-20.179-34.137c25.826-8.664 47.677-13.504 62.471-13.787z"/></svg>