<svg xmlns="http://www.w3.org/2000/svg" xml:space="preserve" style="enable-background:new 0 0 512 512" viewBox="0 0 512 512"><path d="M136.96 358.4c-5.12 0-8.533 3.413-8.533 8.533s3.413 8.533 8.533 8.533 8.533-3.413 8.533-8.533-3.413-8.533-8.533-8.533zM136.96 392.533c-5.12 0-8.533 3.413-8.533 8.533 0 5.12 3.413 8.533 8.533 8.533s8.533-3.413 8.533-8.533c0-5.119-3.413-8.533-8.533-8.533zM136.96 426.667c-5.12 0-8.533 3.413-8.533 8.533s3.413 8.533 8.533 8.533 8.533-3.413 8.533-8.533-3.413-8.533-8.533-8.533zM256.427 238.933c-5.12 0-8.533 3.413-8.533 8.533s3.413 8.533 8.533 8.533 8.533-3.413 8.533-8.533-3.413-8.533-8.533-8.533zM256.427 273.067c-5.12 0-8.533 3.413-8.533 8.533s3.413 8.533 8.533 8.533 8.533-3.413 8.533-8.533-3.413-8.533-8.533-8.533zM256.427 307.2c-5.12 0-8.533 3.413-8.533 8.533s3.413 8.533 8.533 8.533 8.533-3.413 8.533-8.533-3.413-8.533-8.533-8.533zM375.893 358.4c-5.12 0-8.533 3.413-8.533 8.533s3.413 8.533 8.533 8.533 8.533-3.413 8.533-8.533-3.413-8.533-8.533-8.533zM375.893 392.533c-5.12 0-8.533 3.413-8.533 8.533 0 5.12 3.413 8.533 8.533 8.533s8.533-3.413 8.533-8.533c.001-5.119-3.413-8.533-8.533-8.533zM375.893 426.667c-5.12 0-8.533 3.413-8.533 8.533s3.413 8.533 8.533 8.533 8.533-3.413 8.533-8.533-3.413-8.533-8.533-8.533z"/><path d="m508.16 367.787-.853-1.707C382.72 171.52 304.213 46.933 297.387 33.28 282.027.853 261.547 0 256.427 0s-25.6.853-40.96 33.28C206.933 48.64 101.12 215.893 3.84 368.64c-2.56 3.413-3.413 6.827-3.413 11.093v65.707c0 5.973 2.56 11.947 7.68 16.213 4.267 3.413 8.533 5.12 13.653 5.12 1.707 0 2.56-.853 4.267-.853l76.8-15.36v10.24c0 9.387 7.68 17.067 17.067 17.067h8.533v25.6c0 5.12 3.413 8.533 8.533 8.533s8.533-3.413 8.533-8.533v-25.6h8.533c9.387 0 17.067-7.68 17.067-17.067v-24.796l26.773-5.432-.32 6.335c-.853 6.827 1.707 12.8 5.973 17.067s10.24 6.827 16.213 6.827h28.16v42.667c0 5.12 3.413 8.533 8.533 8.533s8.533-3.413 8.533-8.533V460.8h28.16c5.973 0 11.947-2.56 16.213-6.827s5.973-10.24 5.973-16.213l-.428-8.484 26.881 6.233V460.8c0 9.387 7.68 17.067 17.067 17.067h8.533v25.6c0 5.12 3.413 8.533 8.533 8.533s8.533-3.413 8.533-8.533v-25.6h8.533c9.387 0 17.067-7.68 17.067-17.067v-12.529l75.947 16.796c6.827 1.707 12.8 0 17.92-4.267 5.12-3.413 7.68-9.387 7.68-16.213V378.88c.003-3.413-.85-7.68-3.41-11.093zm-371.584-77.634c2.306.048 4.438.436 6.391 1.099.193.073.392.134.582.214l.05.02c6.113 2.603 10.428 8.679 10.428 15.714v17.067h-34.133v-15.36c0-10.064 7.421-17.639 15.776-18.708.3-.023.602-.039.906-.046zM154.027 460.8h-34.133V341.333h34.133V460.8zM270.08 110.933l11.947 11.947 2.56 47.787H264.96v-59.733h5.12zm-22.187 59.734h-19.527l2.461-47.787 11.947-11.947h5.12v59.734zm50.347 271.36c-1.707.853-2.56 1.707-4.267 1.707H264.96v-68.267c0-5.12-3.413-8.533-8.533-8.533s-8.533 3.413-8.533 8.533v68.267h-27.307c-1.707 0-3.413-.853-4.267-1.707-.853-1.707-1.707-2.56-1.707-4.267l12.874-250.027h58.23l14.229 250.027c.001 1.707-.853 3.413-1.706 4.267zm77.377-151.88c4.143.144 8.924 1.807 11.37 4.253 3.413 3.413 5.12 7.68 5.12 12.8l.632 17.067h-33.912v-15.36c0-10.064 7.421-17.639 15.776-18.708.336-.025.673-.046 1.014-.052zM358.827 460.8V341.334h34.133V460.8h-34.133zm136.533-16.213c0 1.707-.853 2.56-1.707 3.413-.853.853-1.707.853-3.413.853l-80.213-16.213V307.2c0-9.387-3.413-17.92-10.24-24.747s-16.213-10.24-25.6-9.387a31.14 31.14 0 0 0-6.605 1.035c-14.79 3.737-25.821 17.19-25.821 33.099v110.934l-27.307-5.12-15.36-296.96-22.187-22.187h-40.96l-22.187 22.187L198.4 412.16l-27.307 5.973V307.2c0-9.387-3.413-17.92-10.24-24.747s-16.213-10.24-25.6-9.387a31.14 31.14 0 0 0-6.605 1.035c-14.79 3.737-25.821 17.19-25.821 33.099v125.44l-80.213 16.213c-1.707 0-2.56 0-3.413-.853s-1.707-1.707-1.707-3.413V378.88c0-.853 0-.853.853-2.56C78.933 282.453 219.733 60.587 229.973 40.96c11.947-23.04 23.893-23.893 24.747-23.893H257.28c.853 0 13.653 0 25.6 23.893 9.387 19.627 151.04 240.64 210.773 334.507l.853.853c.853.853.853 1.707.853 2.56v65.707z"/></svg>